<svg width="26" height="29" viewBox="0 0 26 29" fill="none" xmlns="http://www.w3.org/2000/svg">
<path d="M22.9851 2.64502H21.5V1.05202C21.5335 0.928357 21.5381 0.798644 21.5133 0.672941C21.4886 0.547239 21.4352 0.428926 21.3574 0.327181C21.2795 0.225437 21.1793 0.142996 21.0644 0.0862557C20.9496 0.0295152 20.8232 0 20.695 0C20.5669 0 20.4405 0.0295152 20.3257 0.0862557C20.2108 0.142996 20.1106 0.225437 20.0327 0.327181C19.9549 0.428926 19.9015 0.547239 19.8767 0.672941C19.852 0.798644 19.8566 0.928357 19.89 1.05202V2.64502H6.03205V1.05202C6.06554 0.928357 6.07009 0.798644 6.04535 0.672941C6.02061 0.547239 5.96724 0.428926 5.88939 0.327181C5.81153 0.225437 5.71128 0.142996 5.59642 0.0862557C5.48156 0.0295152 5.35516 0 5.22705 0C5.09894 0 4.97254 0.0295152 4.85768 0.0862557C4.74281 0.142996 4.64257 0.225437 4.56471 0.327181C4.48686 0.428926 4.43349 0.547239 4.40875 0.672941C4.38401 0.798644 4.38856 0.928357 4.42205 1.05202V2.64502H2.94505C2.16446 2.64713 1.41647 2.95822 0.8646 3.51027C0.312734 4.06233 0.0018965 4.81043 4.89995e-05 5.59102V25.614C-0.00218927 26.0026 0.0722753 26.3877 0.219175 26.7475C0.366074 27.1072 0.58252 27.4344 0.856107 27.7103C1.12969 27.9862 1.45504 28.2054 1.8135 28.3553C2.17197 28.5053 2.55649 28.583 2.94505 28.584H22.969C23.7495 28.5819 24.4973 28.271 25.0491 27.7191C25.601 27.1673 25.9119 26.4194 25.914 25.639V5.61602C25.9186 4.8342 25.6129 4.0825 25.064 3.52575C24.5151 2.96899 23.7678 2.65262 22.986 2.64602L22.9851 2.64502ZM2.96205 4.25602H22.9851C23.3391 4.25602 23.6787 4.39667 23.929 4.64703C24.1794 4.89739 24.32 5.23695 24.32 5.59102V9.39102H1.61005V5.59102C1.61005 5.23695 1.7507 4.89739 2.00106 4.64703C2.25142 4.39667 2.59099 4.25602 2.94505 4.25602H2.96205ZM22.9851 26.961H2.96205C2.60885 26.961 2.27004 26.8211 2.01982 26.5718C1.76961 26.3225 1.62837 25.9842 1.62705 25.631V11.005H24.32V25.631C24.3187 25.9842 24.1775 26.3225 23.9273 26.5718C23.6771 26.8211 23.3382 26.961 22.9851 26.961V26.961Z" fill="white"/>
<path d="M9.17804 15.811C9.19049 16.2259 9.04788 16.6306 8.77804 16.946C8.47686 17.2801 8.07608 17.5084 7.63504 17.597C8.11588 17.6314 8.57392 17.8153 8.94504 18.123C9.09564 18.2681 9.21371 18.4435 9.29146 18.6376C9.36921 18.8317 9.40485 19.0401 9.39604 19.249C9.41057 19.5581 9.34982 19.8661 9.219 20.1466C9.08819 20.427 8.89122 20.6715 8.64504 20.859C8.0157 21.2805 7.26499 21.483 6.50904 21.435C5.80769 21.4569 5.1093 21.3347 4.45704 21.076V19.782C4.74569 19.931 5.05076 20.0458 5.36604 20.124C5.69031 20.2073 6.02429 20.2466 6.35904 20.241C6.74365 20.2702 7.12788 20.1798 7.45904 19.982C7.58674 19.8867 7.68712 19.7594 7.75013 19.613C7.81314 19.4667 7.83656 19.3063 7.81804 19.148C7.82754 19.0014 7.79386 18.8553 7.72117 18.7277C7.64847 18.6001 7.53995 18.4966 7.40904 18.43C6.99304 18.2649 6.54576 18.1935 6.09904 18.221H5.54904V17.104H6.10804C6.52159 17.1356 6.93667 17.067 7.31804 16.904C7.44632 16.8298 7.55065 16.7203 7.6187 16.5887C7.68675 16.457 7.71567 16.3086 7.70204 16.161C7.70204 15.619 7.36804 15.327 6.68404 15.327C6.44314 15.3299 6.20408 15.3693 5.97504 15.444C5.68016 15.5428 5.3997 15.6803 5.14104 15.853L4.44104 14.81C5.12227 14.3338 5.93817 14.0885 6.76904 14.11C7.38476 14.0766 7.99582 14.2337 8.51904 14.56C8.72754 14.6939 8.89783 14.8795 9.01331 15.0987C9.1288 15.3179 9.18555 15.5633 9.17804 15.811V15.811Z" fill="white"/>
<path d="M13.9251 21.359H12.4151V15.803C12.1651 16.053 11.9901 16.212 11.8981 16.295L11.0641 16.954L10.3801 16.07L12.6801 14.235H13.9231L13.9251 21.359Z" fill="white"/>
</svg>
