<svg width="34" height="34" viewBox="0 0 34 34" fill="none" xmlns="http://www.w3.org/2000/svg">
<path fill-rule="evenodd" clip-rule="evenodd" d="M16.93 33.86C7.595 33.86 0 26.265 0 16.93C0 7.595 7.595 0 16.93 0C26.265 0 33.86 7.595 33.86 16.93C33.86 26.265 26.265 33.86 16.93 33.86ZM16.93 1.86C8.62 1.86 1.86 8.62 1.86 16.93C1.86 25.24 8.62 32 16.93 32C25.24 32 32 25.24 32 16.93C32 8.62 25.24 1.86 16.93 1.86Z" fill="white"/>
<path fill-rule="evenodd" clip-rule="evenodd" d="M22.2227 25.6367L15.9297 19.3437V7.92969H17.9297V18.5157L23.6367 24.2227L22.2227 25.6367Z" fill="white"/>
</svg>
