<svg width="27" height="26" viewBox="0 0 27 26" fill="none" xmlns="http://www.w3.org/2000/svg">
<path d="M8.343 11.3H2.943C2.16086 11.2974 1.41171 10.9845 0.859965 10.4301C0.308216 9.87577 -0.00106121 9.12515 2.73599e-06 8.343V2.943C0.000532934 2.16228 0.311043 1.41373 0.86328 0.861863C1.41552 0.310001 2.16429 -1.80033e-07 2.945 0L8.345 0C9.12542 0.00211138 9.87326 0.313065 10.4251 0.864903C10.9769 1.41674 11.2879 2.16459 11.29 2.945V8.345C11.2905 9.12749 10.9805 9.87821 10.4279 10.4323C9.87536 10.9863 9.12549 11.2984 8.343 11.3V11.3ZM2.945 1.61C2.59094 1.61 2.25138 1.75065 2.00102 2.00101C1.75065 2.25137 1.61 2.59094 1.61 2.945V8.345C1.61053 8.69872 1.75142 9.03777 2.00172 9.28769C2.25203 9.53762 2.59128 9.678 2.945 9.678H8.345C8.69872 9.67747 9.03777 9.53659 9.2877 9.28628C9.53763 9.03598 9.678 8.69672 9.678 8.343V2.943C9.67747 2.58928 9.53659 2.25023 9.28628 2.00031C9.03598 1.75038 8.69672 1.61 8.343 1.61H2.945Z" fill="white"/>
<path d="M8.343 25.93H2.943C2.16293 25.9274 1.4156 25.6162 0.864194 25.0644C0.312788 24.5126 0.00210883 23.7651 0 22.985L0 17.57C0.00211138 16.7896 0.313065 16.0417 0.864903 15.4899C1.41674 14.9381 2.16459 14.6271 2.945 14.625H8.345C9.12541 14.6271 9.87326 14.9381 10.4251 15.4899C10.9769 16.0417 11.2879 16.7896 11.29 17.57V22.985C11.2879 23.7658 10.9767 24.5139 10.4244 25.0658C9.87212 25.6177 9.12376 25.9284 8.343 25.93ZM2.943 16.235C2.58928 16.2355 2.25023 16.3764 2.00031 16.6267C1.75038 16.877 1.61 17.2163 1.61 17.57V22.985C1.61 23.3391 1.75065 23.6786 2.00101 23.929C2.25137 24.1793 2.59094 24.32 2.945 24.32H8.345C8.69872 24.3195 9.03777 24.1786 9.28769 23.9283C9.53762 23.678 9.678 23.3387 9.678 22.985V17.57C9.678 17.2159 9.53735 16.8764 9.28699 16.626C9.03663 16.3756 8.69706 16.235 8.343 16.235H2.943Z" fill="white"/>
<path d="M23.242 11.3H17.842C17.4541 11.2996 17.0701 11.2228 16.7119 11.074C16.3537 10.9251 16.0284 10.7072 15.7544 10.4326C15.4805 10.158 15.2633 9.83214 15.1153 9.4736C14.9673 9.11506 14.8914 8.73088 14.892 8.343V2.943C14.8922 2.55601 14.9688 2.17286 15.1172 1.81546C15.2656 1.45806 15.483 1.13342 15.757 0.860098C16.031 0.586776 16.3561 0.370132 16.7139 0.222551C17.0716 0.0749706 17.455 -0.000652881 17.842 4.24602e-06H23.242C24.0238 1.37709e-06 24.7737 0.310022 25.3272 0.862088C25.8808 1.41415 26.1929 2.16321 26.195 2.945V8.345C26.1952 8.73297 26.119 9.11718 25.9708 9.47568C25.8225 9.83419 25.605 10.16 25.3308 10.4344C25.0565 10.7088 24.7309 10.9265 24.3725 11.075C24.0141 11.2236 23.6299 11.3 23.242 11.3V11.3ZM17.842 1.61C17.6662 1.60935 17.4921 1.64339 17.3296 1.71019C17.167 1.77698 17.0192 1.87521 16.8947 1.99924C16.7703 2.12328 16.6715 2.27067 16.6041 2.43296C16.5367 2.59526 16.502 2.76927 16.502 2.945V8.345C16.5022 8.52057 16.5371 8.69436 16.6046 8.85643C16.6722 9.01849 16.771 9.16565 16.8955 9.28947C17.0199 9.41329 17.1676 9.51134 17.33 9.57801C17.4924 9.64468 17.6664 9.67866 17.842 9.678H23.242C23.596 9.678 23.9356 9.53735 24.186 9.28699C24.4363 9.03663 24.577 8.69707 24.577 8.343V2.943C24.5764 2.58929 24.4356 2.25024 24.1853 2.00031C23.9349 1.75038 23.5957 1.61 23.242 1.61H17.842Z" fill="white"/>
<path d="M23.242 25.93H17.842C17.0607 25.9292 16.3116 25.6188 15.7587 25.0669C15.2058 24.5149 14.8941 23.7663 14.892 22.985V17.57C14.8941 16.7887 15.2058 16.0401 15.7587 15.4881C16.3116 14.9362 17.0607 14.6258 17.842 14.625H23.242C24.0238 14.625 24.7737 14.935 25.3273 15.4871C25.8809 16.0391 26.1929 16.7882 26.195 17.57V22.985C26.1929 23.7668 25.8809 24.5159 25.3273 25.0679C24.7737 25.62 24.0238 25.93 23.242 25.93V25.93ZM17.842 16.235C17.488 16.235 17.1484 16.3756 16.898 16.626C16.6477 16.8764 16.507 17.2159 16.507 17.57V22.985C16.507 23.3391 16.6477 23.6786 16.898 23.929C17.1484 24.1793 17.488 24.32 17.842 24.32H23.242C23.5961 24.32 23.9357 24.1793 24.186 23.929C24.4364 23.6786 24.577 23.3391 24.577 22.985V17.57C24.577 17.2159 24.4364 16.8764 24.186 16.626C23.9357 16.3756 23.5961 16.235 23.242 16.235H17.842Z" fill="white"/>
</svg>
