<svg width="27" height="27" viewBox="0 0 27 27" fill="none" xmlns="http://www.w3.org/2000/svg">
<path d="M23.535 26.5433H2.945C2.16424 26.5412 1.41609 26.2299 0.864199 25.6777C0.312304 25.1254 0.00158352 24.377 0 23.5963L0 10.0083C0.0368408 9.22293 0.254546 8.45669 0.636147 7.76929C1.01775 7.08189 1.55294 6.49189 2.2 6.04529L11 0.581289C11.6865 0.200054 12.4588 0 13.244 0C14.0292 0 14.8015 0.200054 15.488 0.581289L24.288 6.04629C24.9343 6.4932 25.4686 7.0834 25.8491 7.77084C26.2297 8.45827 26.4463 9.22435 26.482 10.0093V23.6093C26.4778 24.3883 26.1659 25.1341 25.6143 25.6842C25.0627 26.2343 24.316 26.5442 23.537 26.5463L23.535 26.5433Z" fill="white"/>
</svg>
