<svg width="312" height="229" viewBox="0 0 312 229" fill="none" xmlns="http://www.w3.org/2000/svg">
<path d="M155.594 160.641C167.512 160.641 179.43 156.113 188.504 147.055C197.305 138.273 202.148 126.594 202.148 114.168C202.148 101.742 197.305 90.0625 188.504 81.2812C170.355 63.168 140.828 63.168 122.68 81.2812C113.879 90.0625 109.035 101.742 109.035 114.168C109.035 126.594 113.879 138.273 122.68 147.055C131.754 156.113 143.672 160.641 155.594 160.641V160.641ZM143.871 102.512C147.105 99.2852 151.348 97.6758 155.594 97.6758C159.836 97.6758 164.078 99.2891 167.309 102.512C170.43 105.625 172.148 109.766 172.148 114.168C172.148 118.57 170.43 122.707 167.312 125.824C160.848 132.273 150.336 132.27 143.871 125.824C140.75 122.707 139.035 118.57 139.035 114.168C139.035 109.766 140.754 105.629 143.871 102.512V102.512Z" fill="#83F6A1"/>
<path d="M210.403 179.761C213.333 182.699 217.176 184.167 221.02 184.167C224.856 184.167 228.688 182.707 231.618 179.785C249.176 162.257 258.848 138.957 258.848 114.167C258.848 89.3784 249.176 66.0737 231.618 48.5503C225.754 42.6987 216.254 42.7065 210.403 48.5698C204.551 54.4331 204.563 63.9331 210.426 69.7847C222.305 81.6401 228.848 97.4019 228.848 114.167C228.848 130.929 222.305 146.695 210.426 158.55C204.563 164.402 204.551 173.898 210.403 179.761V179.761Z" fill="white"/>
<path d="M79.4883 179.785C82.418 182.707 86.25 184.168 90.0859 184.168C93.9297 184.168 97.7734 182.699 100.703 179.762C106.555 173.898 106.543 164.402 100.68 158.551C88.8008 146.691 82.2578 130.93 82.2578 114.164C82.2578 97.4024 88.8008 81.6406 100.68 69.7813C106.543 63.9297 106.555 54.4336 100.703 48.5703C94.8516 42.7031 85.3516 42.6953 79.4883 48.5469C61.9297 66.0742 52.2617 89.375 52.2578 114.164C52.2578 138.953 61.9297 162.258 79.4883 179.785Z" fill="white"/>
<path d="M281.106 114.167C281.106 147.613 268.055 179.062 244.356 202.714C238.493 208.566 238.481 218.066 244.333 223.929C247.266 226.863 251.106 228.332 254.95 228.332C258.786 228.332 262.618 226.871 265.547 223.949C294.926 194.628 311.106 155.64 311.106 114.167C311.106 72.6987 294.926 33.7065 265.547 4.38624C259.684 -1.46533 250.188 -1.45751 244.333 4.40577C238.481 10.269 238.493 19.769 244.356 25.6206C268.055 49.273 281.106 80.7183 281.106 114.167Z" fill="white"/>
<path d="M56.1562 228.332C60 228.332 63.8438 226.863 66.7734 223.93C72.625 218.066 72.6172 208.566 66.75 202.715C43.0508 179.063 30 147.613 30 114.164C30 80.7188 43.0508 49.2695 66.75 25.6172C72.6133 19.7656 72.625 10.2656 66.7734 4.40626C60.918 -1.46093 51.4219 -1.46874 45.5586 4.38282C16.1797 33.707 0 72.6953 0 114.164C0 155.637 16.1797 194.625 45.5586 223.949C48.4883 226.871 52.3203 228.332 56.1562 228.332Z" fill="white"/>
<rect x="128" y="90" width="51" height="46" fill="#83F6A1"/>
</svg>
