<svg width="295" height="92" viewBox="0 0 295 92" fill="none" xmlns="http://www.w3.org/2000/svg">
<path d="M55.0011 25.3681H68.5678V91.8177H55.0011V79.0686C50.841 86.5599 41.988 91.6673 32.0181 91.6673C15.1281 91.6673 0.591797 77.5469 0.591797 57.6073C0.591797 38.3668 14.2977 23.6865 32.5718 23.6865C41.9864 23.6865 50.8442 27.7026 55.0011 35.0387V25.3681ZM54.8619 57.6233C54.8634 52.0774 52.6892 46.7523 48.8066 42.7923C44.9241 38.8322 39.643 36.5533 34.0982 36.4452C23.0259 36.4452 14.3025 46.135 14.3025 57.6233C14.3025 69.2539 23.0243 78.9438 34.3766 78.9438C39.9134 78.8119 45.1737 76.4968 49.0109 72.5032C52.8482 68.5095 54.9513 63.1609 54.8619 57.6233V57.6233ZM78.6256 57.6233C78.6256 37.1428 94.8228 23.7025 113.506 23.7025C118.262 23.5861 122.984 24.5183 127.338 26.4327C131.693 28.3471 135.572 31.1969 138.701 34.7795L129.704 43.2229C127.671 41.0383 125.202 39.3061 122.456 38.1391C119.71 36.9722 116.749 36.3966 113.766 36.45C101.721 36.45 92.1652 45.3078 92.1652 57.6281C92.1284 60.4618 92.6642 63.2738 93.7403 65.8956C94.8164 68.5173 96.4107 70.8948 98.4277 72.8856C100.445 74.8765 102.843 76.4396 105.478 77.4814C108.114 78.5232 110.933 79.0222 113.766 78.9486C116.748 78.9969 119.708 78.4191 122.453 77.2524C125.198 76.0858 127.668 74.3563 129.704 72.1756L138.701 80.619C135.57 84.1924 131.691 87.0337 127.34 88.9415C122.989 90.8494 118.272 91.7772 113.522 91.6593C94.8228 91.6673 78.6256 78.1197 78.6256 57.6233V57.6233ZM186.79 25.3697V36.722H172.948V91.8193H159.381V36.722H147.749V25.3697H159.38V1.14352H172.946V25.3697H186.79ZM227.024 57.6233C227.024 37.1428 242.532 23.7025 260.945 23.7025C279.358 23.7025 295 37.13 295 57.6233C295 78.1165 279.357 91.6673 260.956 91.6673C242.556 91.6673 227.024 78.1197 227.024 57.6233V57.6233ZM281.426 57.6233C281.514 54.8769 281.05 52.1407 280.061 49.5771C279.072 47.0135 277.578 44.6747 275.668 42.6995C273.758 40.7242 271.47 39.1528 268.941 38.0784C266.412 37.0041 263.693 36.4487 260.945 36.4452C249.873 36.4452 240.593 45.1638 240.593 57.6233C240.593 70.222 249.873 78.9438 260.945 78.9438C272.017 78.9438 281.432 70.222 281.432 57.6233H281.426ZM197.771 9.98533C197.656 8.12673 198.103 6.27659 199.053 4.67482C200.002 3.07305 201.411 1.79352 203.097 1.00212C204.782 0.210724 206.667 -0.0560314 208.506 0.23644C210.345 0.528912 212.054 1.36712 213.411 2.64239C214.767 3.91765 215.71 5.57116 216.116 7.38851C216.522 9.20587 216.372 11.1032 215.687 12.8346C215.002 14.566 213.812 16.0516 212.272 17.0987C210.732 18.1458 208.913 18.7062 207.051 18.7071C205.869 18.746 204.69 18.551 203.583 18.1333C202.476 17.7156 201.462 17.0835 200.6 16.2732C199.738 15.4629 199.044 14.4903 198.559 13.4113C198.073 12.3323 197.805 11.168 197.771 9.98533V9.98533ZM200.261 75.5149L198.379 25.3617H215.72L213.832 75.5149H200.261Z" fill="white"/>
<path d="M200.209 82.2422H213.947V91.8376H200.209V82.2422Z" fill="url(#paint0_linear)"/>
<defs>
<linearGradient id="paint0_linear" x1="200.209" y1="87.0399" x2="213.947" y2="87.0399" gradientUnits="userSpaceOnUse">
<stop stop-color="#D8306B"/>
<stop offset="1" stop-color="#FF5D95"/>
</linearGradient>
</defs>
</svg>
