<svg width="27" height="26" viewBox="0 0 27 26" fill="none" xmlns="http://www.w3.org/2000/svg">
<path d="M25.339 25.062H1.05202C0.928357 25.0955 0.798644 25.1 0.672941 25.0753C0.547239 25.0505 0.428926 24.9972 0.327181 24.9193C0.225437 24.8415 0.142996 24.7412 0.0862557 24.6263C0.0295152 24.5115 0 24.3851 0 24.257C0 24.1289 0.0295152 24.0025 0.0862557 23.8876C0.142996 23.7727 0.225437 23.6725 0.327181 23.5946C0.428926 23.5168 0.547239 23.4634 0.672941 23.4387C0.798644 23.4139 0.928357 23.4185 1.05202 23.452H25.339C25.4627 23.4185 25.5924 23.4139 25.7181 23.4387C25.8438 23.4634 25.9621 23.5168 26.0639 23.5946C26.1656 23.6725 26.248 23.7727 26.3048 23.8876C26.3615 24.0025 26.391 24.1289 26.391 24.257C26.391 24.3851 26.3615 24.5115 26.3048 24.6263C26.248 24.7412 26.1656 24.8415 26.0639 24.9193C25.9621 24.9972 25.8438 25.0505 25.7181 25.0753C25.5924 25.1 25.4627 25.0955 25.339 25.062V25.062Z" fill="white"/>
<path d="M25.339 13.382H1.05203C0.830706 13.382 0.618448 13.2941 0.461949 13.1376C0.30545 12.9811 0.217529 12.7688 0.217529 12.5475C0.217529 12.3262 0.30545 12.1139 0.461949 11.9574C0.618448 11.8009 0.830706 11.713 1.05203 11.713H25.339C25.4627 11.6795 25.5924 11.675 25.7181 11.6997C25.8438 11.7245 25.9621 11.7778 26.0639 11.8557C26.1656 11.9335 26.248 12.0338 26.3048 12.1487C26.3615 12.2635 26.391 12.3899 26.391 12.518C26.391 12.6461 26.3615 12.7725 26.3048 12.8874C26.248 13.0023 26.1656 13.1025 26.0639 13.1804C25.9621 13.2582 25.8438 13.3116 25.7181 13.3363C25.5924 13.3611 25.4627 13.3565 25.339 13.323V13.382Z" fill="white"/>
<path d="M25.339 1.639H1.05202C0.928357 1.67249 0.798644 1.67704 0.672941 1.6523C0.547239 1.62756 0.428926 1.57419 0.327181 1.49634C0.225437 1.41848 0.142996 1.31823 0.0862557 1.20337C0.0295152 1.08851 0 0.962114 0 0.834C0 0.705886 0.0295152 0.579494 0.0862557 0.46463C0.142996 0.349765 0.225437 0.249517 0.327181 0.171663C0.428926 0.0938081 0.547239 0.0404402 0.672941 0.0156993C0.798644 -0.00904162 0.928357 -0.00449035 1.05202 0.029H25.339C25.5602 0.029 25.7723 0.116868 25.9287 0.273273C26.0851 0.429678 26.173 0.641809 26.173 0.863C26.1583 1.07399 26.064 1.27151 25.9091 1.41558C25.7543 1.55965 25.5505 1.63951 25.339 1.639Z" fill="white"/>
</svg>
