<svg width="50" height="50" viewBox="0 0 50 50" fill="none" xmlns="http://www.w3.org/2000/svg">
<rect width="50" height="50" rx="25" fill="#222222"/>
<path d="M25.0943 9.8623C29.5323 9.8623 33.1602 13.4902 33.1602 17.9282C33.1602 22.3662 29.5323 25.994 25.0943 25.994C20.6563 25.994 17.0285 22.3662 17.0285 17.9282C17.0285 13.4902 20.6563 9.8623 25.0943 9.8623Z" fill="white"/>
<path d="M11.2518 32.4389C11.4631 31.9106 11.7449 31.4175 12.0618 30.9596C13.6821 28.5645 16.1828 26.9795 19.0006 26.5921C19.3527 26.5569 19.7402 26.6272 20.022 26.8386C21.5013 27.9305 23.2624 28.494 25.094 28.494C26.9256 28.494 28.6866 27.9305 30.166 26.8386C30.4478 26.6272 30.8352 26.5216 31.1874 26.5921C34.0052 26.9795 36.5411 28.5645 38.1261 30.9596C38.4431 31.4175 38.7249 31.9459 38.9362 32.4389C39.0418 32.6503 39.0067 32.8968 38.901 33.1082C38.6192 33.6013 38.267 34.0944 37.95 34.5171C37.4569 35.1863 36.9286 35.7851 36.3298 36.3486C35.8367 36.8417 35.2732 37.2996 34.7096 37.7575C31.927 39.8356 28.5809 40.9274 25.1292 40.9274C21.6774 40.9274 18.3313 39.8355 15.5488 37.7575C14.9853 37.3348 14.4217 36.8417 13.9286 36.3486C13.365 35.7851 12.8015 35.1863 12.3083 34.5171C11.9561 34.0592 11.6391 33.6013 11.3573 33.1082C11.1813 32.8968 11.1461 32.6502 11.2518 32.4389Z" fill="white"/>
</svg>
